mtllib ./mkbxmodel.mtl
g Chunk(Clone)
v -0.75 -0.25 1.75
v -1.25 -0.25 1.75
v -1.25 -0.25 2.25
v -0.75 -0.25 2.25
v -1.25 -0.25 2.25
v -1.25 0.25 2.25
v -0.75 0.25 2.25
v -0.75 -0.25 2.25
v -0.75 -0.25 1.75
v -0.75 0.25 1.75
v -1.25 0.25 1.75
v -1.25 -0.25 1.75
v -1.25 -0.25 1.75
v -1.25 0.25 1.75
v -1.25 0.25 2.25
v -1.25 -0.25 2.25
v -0.75 -0.25 2.25
v -0.75 0.25 2.25
v -0.75 0.25 1.75
v -0.75 -0.25 1.75
v -1.25 0.25 2.25
v -1.25 0.75 2.25
v -0.75 0.75 2.25
v -0.75 0.25 2.25
v -0.75 0.25 1.75
v -0.75 0.75 1.75
v -1.25 0.75 1.75
v -1.25 0.25 1.75
v -1.25 0.25 1.75
v -1.25 0.75 1.75
v -1.25 0.75 2.25
v -1.25 0.25 2.25
v -0.75 0.25 2.25
v -0.75 0.75 2.25
v -0.75 0.75 1.75
v -0.75 0.25 1.75
v -0.75 1.25 2.25
v -1.25 1.25 2.25
v -1.25 1.25 1.75
v -0.75 1.25 1.75
v -1.25 0.75 2.25
v -1.25 1.25 2.25
v -0.75 1.25 2.25
v -0.75 0.75 2.25
v -0.75 0.75 1.75
v -0.75 1.25 1.75
v -1.25 1.25 1.75
v -1.25 0.75 1.75
v -1.25 0.75 1.75
v -1.25 1.25 1.75
v -1.25 1.25 2.25
v -1.25 0.75 2.25
v -0.75 0.75 2.25
v -0.75 1.25 2.25
v -0.75 1.25 1.75
v -0.75 0.75 1.75

vn 0 -1 0
vn 0 -1 0
vn 0 -1 0
vn 0 -1 0
vn 0 0 1
vn 0 0 1
vn 0 0 1
vn 0 0 1
vn 0 0 -1
vn 0 0 -1
vn 0 0 -1
vn 0 0 -1
vn -1 0 0
vn -1 0 0
vn -1 0 0
vn -1 0 0
vn 1 0 0
vn 1 0 0
vn 1 0 0
vn 1 0 0
vn 0 0 1
vn 0 0 1
vn 0 0 1
vn 0 0 1
vn 0 0 -1
vn 0 0 -1
vn 0 0 -1
vn 0 0 -1
vn -1 0 0
vn -1 0 0
vn -1 0 0
vn -1 0 0
vn 1 0 0
vn 1 0 0
vn 1 0 0
vn 1 0 0
vn 0 1 0
vn 0 1 0
vn 0 1 0
vn 0 1 0
vn 0 0 1
vn 0 0 1
vn 0 0 1
vn 0 0 1
vn 0 0 -1
vn 0 0 -1
vn 0 0 -1
vn 0 0 -1
vn -1 0 0
vn -1 0 0
vn -1 0 0
vn -1 0 0
vn 1 0 0
vn 1 0 0
vn 1 0 0
vn 1 0 0

vt 0.03320313 0.001953125
vt 0.03320313 0.001953125
vt 0.03320313 0.001953125
vt 0.03320313 0.001953125
vt 0.03320313 0.001953125
vt 0.03320313 0.001953125
vt 0.03320313 0.001953125
vt 0.03320313 0.001953125
vt 0.03320313 0.001953125
vt 0.03320313 0.001953125
vt 0.03320313 0.001953125
vt 0.03320313 0.001953125
vt 0.03320313 0.001953125
vt 0.03320313 0.001953125
vt 0.03320313 0.001953125
vt 0.03320313 0.001953125
vt 0.03320313 0.001953125
vt 0.03320313 0.001953125
vt 0.03320313 0.001953125
vt 0.03320313 0.001953125
vt 0.03320313 0.001953125
vt 0.03320313 0.001953125
vt 0.03320313 0.001953125
vt 0.03320313 0.001953125
vt 0.03320313 0.001953125
vt 0.03320313 0.001953125
vt 0.03320313 0.001953125
vt 0.03320313 0.001953125
vt 0.03320313 0.001953125
vt 0.03320313 0.001953125
vt 0.03320313 0.001953125
vt 0.03320313 0.001953125
vt 0.03320313 0.001953125
vt 0.03320313 0.001953125
vt 0.03320313 0.001953125
vt 0.03320313 0.001953125
vt 0.03320313 0.001953125
vt 0.03320313 0.001953125
vt 0.03320313 0.001953125
vt 0.03320313 0.001953125
vt 0.03320313 0.001953125
vt 0.03320313 0.001953125
vt 0.03320313 0.001953125
vt 0.03320313 0.001953125
vt 0.03320313 0.001953125
vt 0.03320313 0.001953125
vt 0.03320313 0.001953125
vt 0.03320313 0.001953125
vt 0.03320313 0.001953125
vt 0.03320313 0.001953125
vt 0.03320313 0.001953125
vt 0.03320313 0.001953125
vt 0.03320313 0.001953125
vt 0.03320313 0.001953125
vt 0.03320313 0.001953125
vt 0.03320313 0.001953125

usemtl VRVox/StandardVertex
f 2/2/2 1/1/1 3/3/3
f 3/3/3 1/1/1 4/4/4
f 6/6/6 5/5/5 7/7/7
f 7/7/7 5/5/5 8/8/8
f 10/10/10 9/9/9 11/11/11
f 11/11/11 9/9/9 12/12/12
f 14/14/14 13/13/13 15/15/15
f 15/15/15 13/13/13 16/16/16
f 18/18/18 17/17/17 19/19/19
f 19/19/19 17/17/17 20/20/20
f 22/22/22 21/21/21 23/23/23
f 23/23/23 21/21/21 24/24/24
f 26/26/26 25/25/25 27/27/27
f 27/27/27 25/25/25 28/28/28
f 30/30/30 29/29/29 31/31/31
f 31/31/31 29/29/29 32/32/32
f 34/34/34 33/33/33 35/35/35
f 35/35/35 33/33/33 36/36/36
f 38/38/38 37/37/37 39/39/39
f 39/39/39 37/37/37 40/40/40
f 42/42/42 41/41/41 43/43/43
f 43/43/43 41/41/41 44/44/44
f 46/46/46 45/45/45 47/47/47
f 47/47/47 45/45/45 48/48/48
f 50/50/50 49/49/49 51/51/51
f 51/51/51 49/49/49 52/52/52
f 54/54/54 53/53/53 55/55/55
f 55/55/55 53/53/53 56/56/56
g Chunk(Clone)
v 0.25 -0.75 2.25
v -0.25 -0.75 2.25
v -0.25 -0.75 1.75
v 0.25 -0.75 1.75
v 0.25 -1.25 1.75
v -0.25 -1.25 1.75
v -0.25 -1.25 2.25
v 0.25 -1.25 2.25
v -0.25 -1.25 2.25
v -0.25 -0.75 2.25
v 0.25 -0.75 2.25
v 0.25 -1.25 2.25
v 0.25 -1.25 1.75
v 0.25 -0.75 1.75
v -0.25 -0.75 1.75
v -0.25 -1.25 1.75
v 0.25 -1.25 2.25
v 0.25 -0.75 2.25
v 0.25 -0.75 1.75
v 0.25 -1.25 1.75
v -0.25 -1.75 1.75
v -0.75 -1.75 1.75
v -0.75 -1.75 2.25
v -0.25 -1.75 2.25
v -0.75 -1.75 2.25
v -0.75 -1.25 2.25
v -0.25 -1.25 2.25
v -0.25 -1.75 2.25
v -0.25 -1.75 1.75
v -0.25 -1.25 1.75
v -0.75 -1.25 1.75
v -0.75 -1.75 1.75
v -0.25 -1.75 2.25
v -0.25 -1.25 2.25
v -0.25 -1.25 1.75
v -0.25 -1.75 1.75
v -0.25 -0.75 2.25
v -0.75 -0.75 2.25
v -0.75 -0.75 1.75
v -0.25 -0.75 1.75
v -0.75 -1.25 2.25
v -0.75 -0.75 2.25
v -0.25 -0.75 2.25
v -0.25 -1.25 2.25
v -0.25 -1.25 1.75
v -0.25 -0.75 1.75
v -0.75 -0.75 1.75
v -0.75 -1.25 1.75
v -0.75 -2.25 1.75
v -1.25 -2.25 1.75
v -1.25 -2.25 2.25
v -0.75 -2.25 2.25
v -1.25 -2.25 2.25
v -1.25 -1.75 2.25
v -0.75 -1.75 2.25
v -0.75 -2.25 2.25
v -0.75 -2.25 1.75
v -0.75 -1.75 1.75
v -1.25 -1.75 1.75
v -1.25 -2.25 1.75
v -1.25 -2.25 1.75
v -1.25 -1.75 1.75
v -1.25 -1.75 2.25
v -1.25 -2.25 2.25
v -0.75 -2.25 2.25
v -0.75 -1.75 2.25
v -0.75 -1.75 1.75
v -0.75 -2.25 1.75
v -1.25 -1.75 2.25
v -1.25 -1.25 2.25
v -0.75 -1.25 2.25
v -0.75 -1.75 2.25
v -0.75 -1.75 1.75
v -0.75 -1.25 1.75
v -1.25 -1.25 1.75
v -1.25 -1.75 1.75
v -1.25 -1.25 2.25
v -1.25 -0.75 2.25
v -0.75 -0.75 2.25
v -0.75 -1.25 2.25
v -0.75 -1.25 1.75
v -0.75 -0.75 1.75
v -1.25 -0.75 1.75
v -1.25 -1.25 1.75
v -0.75 -0.25 2.25
v -1.25 -0.25 2.25
v -1.25 -0.25 1.75
v -0.75 -0.25 1.75
v -1.25 -0.75 2.25
v -1.25 -0.25 2.25
v -0.75 -0.25 2.25
v -0.75 -0.75 2.25
v -0.75 -0.75 1.75
v -0.75 -0.25 1.75
v -1.25 -0.25 1.75
v -1.25 -0.75 1.75
v -1.25 -0.75 1.75
v -1.25 -0.25 1.75
v -1.25 -0.25 2.25
v -1.25 -0.75 2.25
v -0.75 -0.75 2.25
v -0.75 -0.25 2.25
v -0.75 -0.25 1.75
v -0.75 -0.75 1.75
v -1.25 -1.75 1.75
v -1.75 -1.75 1.75
v -1.75 -1.75 2.25
v -1.25 -1.75 2.25
v -1.75 -1.75 2.25
v -1.75 -1.25 2.25
v -1.25 -1.25 2.25
v -1.25 -1.75 2.25
v -1.25 -1.75 1.75
v -1.25 -1.25 1.75
v -1.75 -1.25 1.75
v -1.75 -1.75 1.75
v -1.75 -1.75 1.75
v -1.75 -1.25 1.75
v -1.75 -1.25 2.25
v -1.75 -1.75 2.25
v -1.25 -0.75 2.25
v -1.75 -0.75 2.25
v -1.75 -0.75 1.75
v -1.25 -0.75 1.75
v -1.75 -1.25 2.25
v -1.75 -0.75 2.25
v -1.25 -0.75 2.25
v -1.25 -1.25 2.25
v -1.25 -1.25 1.75
v -1.25 -0.75 1.75
v -1.75 -0.75 1.75
v -1.75 -1.25 1.75
v -1.75 -0.75 2.25
v -2.25 -0.75 2.25
v -2.25 -0.75 1.75
v -1.75 -0.75 1.75
v -1.75 -1.25 1.75
v -2.25 -1.25 1.75
v -2.25 -1.25 2.25
v -1.75 -1.25 2.25
v -2.25 -1.25 2.25
v -2.25 -0.75 2.25
v -1.75 -0.75 2.25
v -1.75 -1.25 2.25
v -1.75 -1.25 1.75
v -1.75 -0.75 1.75
v -2.25 -0.75 1.75
v -2.25 -1.25 1.75
v -2.25 -1.25 1.75
v -2.25 -0.75 1.75
v -2.25 -0.75 2.25
v -2.25 -1.25 2.25

vn 0 1 0
vn 0 1 0
vn 0 1 0
vn 0 1 0
vn 0 -1 0
vn 0 -1 0
vn 0 -1 0
vn 0 -1 0
vn 0 0 1
vn 0 0 1
vn 0 0 1
vn 0 0 1
vn 0 0 -1
vn 0 0 -1
vn 0 0 -1
vn 0 0 -1
vn 1 0 0
vn 1 0 0
vn 1 0 0
vn 1 0 0
vn 0 -1 0
vn 0 -1 0
vn 0 -1 0
vn 0 -1 0
vn 0 0 1
vn 0 0 1
vn 0 0 1
vn 0 0 1
vn 0 0 -1
vn 0 0 -1
vn 0 0 -1
vn 0 0 -1
vn 1 0 0
vn 1 0 0
vn 1 0 0
vn 1 0 0
vn 0 1 0
vn 0 1 0
vn 0 1 0
vn 0 1 0
vn 0 0 1
vn 0 0 1
vn 0 0 1
vn 0 0 1
vn 0 0 -1
vn 0 0 -1
vn 0 0 -1
vn 0 0 -1
vn 0 -1 0
vn 0 -1 0
vn 0 -1 0
vn 0 -1 0
vn 0 0 1
vn 0 0 1
vn 0 0 1
vn 0 0 1
vn 0 0 -1
vn 0 0 -1
vn 0 0 -1
vn 0 0 -1
vn -1 0 0
vn -1 0 0
vn -1 0 0
vn -1 0 0
vn 1 0 0
vn 1 0 0
vn 1 0 0
vn 1 0 0
vn 0 0 1
vn 0 0 1
vn 0 0 1
vn 0 0 1
vn 0 0 -1
vn 0 0 -1
vn 0 0 -1
vn 0 0 -1
vn 0 0 1
vn 0 0 1
vn 0 0 1
vn 0 0 1
vn 0 0 -1
vn 0 0 -1
vn 0 0 -1
vn 0 0 -1
vn 0 1 0
vn 0 1 0
vn 0 1 0
vn 0 1 0
vn 0 0 1
vn 0 0 1
vn 0 0 1
vn 0 0 1
vn 0 0 -1
vn 0 0 -1
vn 0 0 -1
vn 0 0 -1
vn -1 0 0
vn -1 0 0
vn -1 0 0
vn -1 0 0
vn 1 0 0
vn 1 0 0
vn 1 0 0
vn 1 0 0
vn 0 -1 0
vn 0 -1 0
vn 0 -1 0
vn 0 -1 0
vn 0 0 1
vn 0 0 1
vn 0 0 1
vn 0 0 1
vn 0 0 -1
vn 0 0 -1
vn 0 0 -1
vn 0 0 -1
vn -1 0 0
vn -1 0 0
vn -1 0 0
vn -1 0 0
vn 0 1 0
vn 0 1 0
vn 0 1 0
vn 0 1 0
vn 0 0 1
vn 0 0 1
vn 0 0 1
vn 0 0 1
vn 0 0 -1
vn 0 0 -1
vn 0 0 -1
vn 0 0 -1
vn 0 1 0
vn 0 1 0
vn 0 1 0
vn 0 1 0
vn 0 -1 0
vn 0 -1 0
vn 0 -1 0
vn 0 -1 0
vn 0 0 1
vn 0 0 1
vn 0 0 1
vn 0 0 1
vn 0 0 -1
vn 0 0 -1
vn 0 0 -1
vn 0 0 -1
vn -1 0 0
vn -1 0 0
vn -1 0 0
vn -1 0 0

vt 0.03320313 0.001953125
vt 0.03320313 0.001953125
vt 0.03320313 0.001953125
vt 0.03320313 0.001953125
vt 0.03320313 0.001953125
vt 0.03320313 0.001953125
vt 0.03320313 0.001953125
vt 0.03320313 0.001953125
vt 0.03320313 0.001953125
vt 0.03320313 0.001953125
vt 0.03320313 0.001953125
vt 0.03320313 0.001953125
vt 0.03320313 0.001953125
vt 0.03320313 0.001953125
vt 0.03320313 0.001953125
vt 0.03320313 0.001953125
vt 0.03320313 0.001953125
vt 0.03320313 0.001953125
vt 0.03320313 0.001953125
vt 0.03320313 0.001953125
vt 0.03320313 0.001953125
vt 0.03320313 0.001953125
vt 0.03320313 0.001953125
vt 0.03320313 0.001953125
vt 0.03320313 0.001953125
vt 0.03320313 0.001953125
vt 0.03320313 0.001953125
vt 0.03320313 0.001953125
vt 0.03320313 0.001953125
vt 0.03320313 0.001953125
vt 0.03320313 0.001953125
vt 0.03320313 0.001953125
vt 0.03320313 0.001953125
vt 0.03320313 0.001953125
vt 0.03320313 0.001953125
vt 0.03320313 0.001953125
vt 0.03320313 0.001953125
vt 0.03320313 0.001953125
vt 0.03320313 0.001953125
vt 0.03320313 0.001953125
vt 0.03320313 0.001953125
vt 0.03320313 0.001953125
vt 0.03320313 0.001953125
vt 0.03320313 0.001953125
vt 0.03320313 0.001953125
vt 0.03320313 0.001953125
vt 0.03320313 0.001953125
vt 0.03320313 0.001953125
vt 0.03320313 0.001953125
vt 0.03320313 0.001953125
vt 0.03320313 0.001953125
vt 0.03320313 0.001953125
vt 0.03320313 0.001953125
vt 0.03320313 0.001953125
vt 0.03320313 0.001953125
vt 0.03320313 0.001953125
vt 0.03320313 0.001953125
vt 0.03320313 0.001953125
vt 0.03320313 0.001953125
vt 0.03320313 0.001953125
vt 0.03320313 0.001953125
vt 0.03320313 0.001953125
vt 0.03320313 0.001953125
vt 0.03320313 0.001953125
vt 0.03320313 0.001953125
vt 0.03320313 0.001953125
vt 0.03320313 0.001953125
vt 0.03320313 0.001953125
vt 0.03320313 0.001953125
vt 0.03320313 0.001953125
vt 0.03320313 0.001953125
vt 0.03320313 0.001953125
vt 0.03320313 0.001953125
vt 0.03320313 0.001953125
vt 0.03320313 0.001953125
vt 0.03320313 0.001953125
vt 0.03320313 0.001953125
vt 0.03320313 0.001953125
vt 0.03320313 0.001953125
vt 0.03320313 0.001953125
vt 0.03320313 0.001953125
vt 0.03320313 0.001953125
vt 0.03320313 0.001953125
vt 0.03320313 0.001953125
vt 0.03320313 0.001953125
vt 0.03320313 0.001953125
vt 0.03320313 0.001953125
vt 0.03320313 0.001953125
vt 0.03320313 0.001953125
vt 0.03320313 0.001953125
vt 0.03320313 0.001953125
vt 0.03320313 0.001953125
vt 0.03320313 0.001953125
vt 0.03320313 0.001953125
vt 0.03320313 0.001953125
vt 0.03320313 0.001953125
vt 0.03320313 0.001953125
vt 0.03320313 0.001953125
vt 0.03320313 0.001953125
vt 0.03320313 0.001953125
vt 0.03320313 0.001953125
vt 0.03320313 0.001953125
vt 0.03320313 0.001953125
vt 0.03320313 0.001953125
vt 0.03320313 0.001953125
vt 0.03320313 0.001953125
vt 0.03320313 0.001953125
vt 0.03320313 0.001953125
vt 0.03320313 0.001953125
vt 0.03320313 0.001953125
vt 0.03320313 0.001953125
vt 0.03320313 0.001953125
vt 0.03320313 0.001953125
vt 0.03320313 0.001953125
vt 0.03320313 0.001953125
vt 0.03320313 0.001953125
vt 0.03320313 0.001953125
vt 0.03320313 0.001953125
vt 0.03320313 0.001953125
vt 0.03320313 0.001953125
vt 0.03320313 0.001953125
vt 0.03320313 0.001953125
vt 0.03320313 0.001953125
vt 0.03320313 0.001953125
vt 0.03320313 0.001953125
vt 0.03320313 0.001953125
vt 0.03320313 0.001953125
vt 0.03320313 0.001953125
vt 0.03320313 0.001953125
vt 0.03320313 0.001953125
vt 0.03320313 0.001953125
vt 0.03320313 0.001953125
vt 0.03320313 0.001953125
vt 0.03320313 0.001953125
vt 0.03320313 0.001953125
vt 0.03320313 0.001953125
vt 0.03320313 0.001953125
vt 0.03320313 0.001953125
vt 0.03320313 0.001953125
vt 0.03320313 0.001953125
vt 0.03320313 0.001953125
vt 0.03320313 0.001953125
vt 0.03320313 0.001953125
vt 0.03320313 0.001953125
vt 0.03320313 0.001953125
vt 0.03320313 0.001953125
vt 0.03320313 0.001953125
vt 0.03320313 0.001953125
vt 0.03320313 0.001953125
vt 0.03320313 0.001953125
vt 0.03320313 0.001953125
vt 0.03320313 0.001953125

usemtl VRVox/StandardVertex
f 58/58/58 57/57/57 59/59/59
f 59/59/59 57/57/57 60/60/60
f 62/62/62 61/61/61 63/63/63
f 63/63/63 61/61/61 64/64/64
f 66/66/66 65/65/65 67/67/67
f 67/67/67 65/65/65 68/68/68
f 70/70/70 69/69/69 71/71/71
f 71/71/71 69/69/69 72/72/72
f 74/74/74 73/73/73 75/75/75
f 75/75/75 73/73/73 76/76/76
f 78/78/78 77/77/77 79/79/79
f 79/79/79 77/77/77 80/80/80
f 82/82/82 81/81/81 83/83/83
f 83/83/83 81/81/81 84/84/84
f 86/86/86 85/85/85 87/87/87
f 87/87/87 85/85/85 88/88/88
f 90/90/90 89/89/89 91/91/91
f 91/91/91 89/89/89 92/92/92
f 94/94/94 93/93/93 95/95/95
f 95/95/95 93/93/93 96/96/96
f 98/98/98 97/97/97 99/99/99
f 99/99/99 97/97/97 100/100/100
f 102/102/102 101/101/101 103/103/103
f 103/103/103 101/101/101 104/104/104
f 106/106/106 105/105/105 107/107/107
f 107/107/107 105/105/105 108/108/108
f 110/110/110 109/109/109 111/111/111
f 111/111/111 109/109/109 112/112/112
f 114/114/114 113/113/113 115/115/115
f 115/115/115 113/113/113 116/116/116
f 118/118/118 117/117/117 119/119/119
f 119/119/119 117/117/117 120/120/120
f 122/122/122 121/121/121 123/123/123
f 123/123/123 121/121/121 124/124/124
f 126/126/126 125/125/125 127/127/127
f 127/127/127 125/125/125 128/128/128
f 130/130/130 129/129/129 131/131/131
f 131/131/131 129/129/129 132/132/132
f 134/134/134 133/133/133 135/135/135
f 135/135/135 133/133/133 136/136/136
f 138/138/138 137/137/137 139/139/139
f 139/139/139 137/137/137 140/140/140
f 142/142/142 141/141/141 143/143/143
f 143/143/143 141/141/141 144/144/144
f 146/146/146 145/145/145 147/147/147
f 147/147/147 145/145/145 148/148/148
f 150/150/150 149/149/149 151/151/151
f 151/151/151 149/149/149 152/152/152
f 154/154/154 153/153/153 155/155/155
f 155/155/155 153/153/153 156/156/156
f 158/158/158 157/157/157 159/159/159
f 159/159/159 157/157/157 160/160/160
f 162/162/162 161/161/161 163/163/163
f 163/163/163 161/161/161 164/164/164
f 166/166/166 165/165/165 167/167/167
f 167/167/167 165/165/165 168/168/168
f 170/170/170 169/169/169 171/171/171
f 171/171/171 169/169/169 172/172/172
f 174/174/174 173/173/173 175/175/175
f 175/175/175 173/173/173 176/176/176
f 178/178/178 177/177/177 179/179/179
f 179/179/179 177/177/177 180/180/180
f 182/182/182 181/181/181 183/183/183
f 183/183/183 181/181/181 184/184/184
f 186/186/186 185/185/185 187/187/187
f 187/187/187 185/185/185 188/188/188
f 190/190/190 189/189/189 191/191/191
f 191/191/191 189/189/189 192/192/192
f 194/194/194 193/193/193 195/195/195
f 195/195/195 193/193/193 196/196/196
f 198/198/198 197/197/197 199/199/199
f 199/199/199 197/197/197 200/200/200
f 202/202/202 201/201/201 203/203/203
f 203/203/203 201/201/201 204/204/204
f 206/206/206 205/205/205 207/207/207
f 207/207/207 205/205/205 208/208/208
g Chunk(Clone)



usemtl VRVox/StandardVertex
