ply
format ascii 1.0
Created by Open Asset Import Library - http://assimp.sf.net (v3.0.1262)
element vertex 444
property float x
property float y
property float z
property float nx
property float ny
property float nz
property float s
property float t
element face 148
property list uint uint vertex_indices
end_header
1.25713 -2.29697 -0.180099 0.00910094 -0.999926 0.00811157 0.384766 0.00195312
1.7571 -2.29245 -0.183929 0.00910094 -0.999926 0.00811157 0.384766 0.00195312
1.26092 -2.29288 0.31987 0.00910094 -0.999926 0.00811157 0.384766 0.00195312
1.26092 -2.29288 0.31987 0.00910094 -0.999926 0.00811157 0.384766 0.00195312
1.7571 -2.29245 -0.183929 0.00910094 -0.999926 0.00811157 0.384766 0.00195312
1.76089 -2.28836 0.31604 0.00910094 -0.999926 0.00811157 0.384766 0.00195312
1.75255 -1.79249 -0.187984 -0.00758475 -0.0081807 -0.999938 0.384766 0.00195312
1.7571 -2.29245 -0.183929 -0.00758475 -0.0081807 -0.999938 0.384766 0.00195312
1.25258 -1.79701 -0.184155 -0.00758475 -0.0081807 -0.999938 0.384766 0.00195312
1.25258 -1.79701 -0.184155 -0.00758475 -0.0081807 -0.999938 0.384766 0.00195312
1.7571 -2.29245 -0.183929 -0.00758475 -0.0081807 -0.999938 0.384766 0.00195312
1.25713 -2.29697 -0.180099 -0.00758475 -0.0081807 -0.999938 0.384766 0.00195312
1.75634 -1.7884 0.311985 0.99993 0.00903885 -0.00765864 0.384766 0.00195312
1.76089 -2.28836 0.31604 0.99993 0.00903885 -0.00765864 0.384766 0.00195312
1.75255 -1.79249 -0.187984 0.99993 0.00903885 -0.00765864 0.384766 0.00195312
1.75255 -1.79249 -0.187984 0.99993 0.00903885 -0.00765864 0.384766 0.00195312
1.76089 -2.28836 0.31604 0.99993 0.00903885 -0.00765864 0.384766 0.00195312
1.7571 -2.29245 -0.183929 0.99993 0.00903885 -0.00765864 0.384766 0.00195312
1.26092 -2.29288 0.31987 0.00910094 -0.999926 0.00811157 0.384766 0.00195312
1.76089 -2.28836 0.31604 0.00910094 -0.999926 0.00811157 0.384766 0.00195312
1.26472 -2.28879 0.819839 0.00910094 -0.999926 0.00811157 0.384766 0.00195312
1.26472 -2.28879 0.819839 0.00910094 -0.999926 0.00811157 0.384766 0.00195312
1.76089 -2.28836 0.31604 0.00910094 -0.999926 0.00811157 0.384766 0.00195312
1.76468 -2.28427 0.816009 0.00910094 -0.999926 0.00811157 0.384766 0.00195312
1.76013 -1.78431 0.811953 0.99993 0.00903885 -0.00765864 0.384766 0.00195312
1.76468 -2.28427 0.816009 0.99993 0.00903885 -0.00765864 0.384766 0.00195312
1.75634 -1.7884 0.311985 0.99993 0.00903885 -0.00765864 0.384766 0.00195312
1.75634 -1.7884 0.311985 0.99993 0.00903885 -0.00765864 0.384766 0.00195312
1.76468 -2.28427 0.816009 0.99993 0.00903885 -0.00765864 0.384766 0.00195312
1.76089 -2.28836 0.31604 0.99993 0.00903885 -0.00765864 0.384766 0.00195312
1.26472 -2.28879 0.819839 0.00910094 -0.999926 0.00811157 0.384766 0.00195312
1.76468 -2.28427 0.816009 0.00910094 -0.999926 0.00811157 0.384766 0.00195312
1.26851 -2.2847 1.31981 0.00910094 -0.999926 0.00811157 0.384766 0.00195312
1.26851 -2.2847 1.31981 0.00910094 -0.999926 0.00811157 0.384766 0.00195312
1.76468 -2.28427 0.816009 0.00910094 -0.999926 0.00811157 0.384766 0.00195312
1.76847 -2.28018 1.31598 0.00910094 -0.999926 0.00811157 0.384766 0.00195312
1.26396 -1.78474 1.31575 0.00758475 0.0081807 0.999938 0.384766 0.00195312
1.26851 -2.2847 1.31981 0.00758475 0.0081807 0.999938 0.384766 0.00195312
1.76392 -1.78022 1.31192 0.00758475 0.0081807 0.999938 0.384766 0.00195312
1.76392 -1.78022 1.31192 0.00758475 0.0081807 0.999938 0.384766 0.00195312
1.26851 -2.2847 1.31981 0.00758475 0.0081807 0.999938 0.384766 0.00195312
1.76847 -2.28018 1.31598 0.00758475 0.0081807 0.999938 0.384766 0.00195312
1.76392 -1.78022 1.31192 0.99993 0.00903885 -0.00765864 0.384766 0.00195312
1.76847 -2.28018 1.31598 0.99993 0.00903885 -0.00765864 0.384766 0.00195312
1.76013 -1.78431 0.811953 0.99993 0.00903885 -0.00765864 0.384766 0.00195312
1.76013 -1.78431 0.811953 0.99993 0.00903885 -0.00765864 0.384766 0.00195312
1.76847 -2.28018 1.31598 0.99993 0.00903885 -0.00765864 0.384766 0.00195312
1.76468 -2.28427 0.816009 0.99993 0.00903885 -0.00765864 0.384766 0.00195312
1.748 -1.29253 -0.19204 -0.00758475 -0.0081807 -0.999938 0.384766 0.00195312
1.75255 -1.79249 -0.187984 -0.00758475 -0.0081807 -0.999938 0.384766 0.00195312
1.24803 -1.29704 -0.188211 -0.00758475 -0.0081807 -0.999938 0.384766 0.00195312
1.24803 -1.29704 -0.188211 -0.00758475 -0.0081807 -0.999938 0.384766 0.00195312
1.75255 -1.79249 -0.187984 -0.00758475 -0.0081807 -0.999938 0.384766 0.00195312
1.25258 -1.79701 -0.184155 -0.00758475 -0.0081807 -0.999938 0.384766 0.00195312
1.75179 -1.28843 0.307929 0.99993 0.00903885 -0.00765864 0.384766 0.00195312
1.75634 -1.7884 0.311985 0.99993 0.00903885 -0.00765864 0.384766 0.00195312
1.748 -1.29253 -0.19204 0.99993 0.00903885 -0.00765864 0.384766 0.00195312
1.748 -1.29253 -0.19204 0.99993 0.00903885 -0.00765864 0.384766 0.00195312
1.75634 -1.7884 0.311985 0.99993 0.00903885 -0.00765864 0.384766 0.00195312
1.75255 -1.79249 -0.187984 0.99993 0.00903885 -0.00765864 0.384766 0.00195312
1.75558 -1.28434 0.807898 0.99993 0.00903885 -0.00765864 0.384766 0.00195312
1.76013 -1.78431 0.811953 0.99993 0.00903885 -0.00765864 0.384766 0.00195312
1.75179 -1.28843 0.307929 0.99993 0.00903885 -0.00765864 0.384766 0.00195312
1.75179 -1.28843 0.307929 0.99993 0.00903885 -0.00765864 0.384766 0.00195312
1.76013 -1.78431 0.811953 0.99993 0.00903885 -0.00765864 0.384766 0.00195312
1.75634 -1.7884 0.311985 0.99993 0.00903885 -0.00765864 0.384766 0.00195312
1.25941 -1.28477 1.3117 0.00758475 0.0081807 0.999938 0.384766 0.00195312
1.26396 -1.78474 1.31575 0.00758475 0.0081807 0.999938 0.384766 0.00195312
1.75937 -1.28025 1.30787 0.00758475 0.0081807 0.999938 0.384766 0.00195312
1.75937 -1.28025 1.30787 0.00758475 0.0081807 0.999938 0.384766 0.00195312
1.26396 -1.78474 1.31575 0.00758475 0.0081807 0.999938 0.384766 0.00195312
1.76392 -1.78022 1.31192 0.00758475 0.0081807 0.999938 0.384766 0.00195312
1.75937 -1.28025 1.30787 0.99993 0.00903885 -0.00765864 0.384766 0.00195312
1.76392 -1.78022 1.31192 0.99993 0.00903885 -0.00765864 0.384766 0.00195312
1.75558 -1.28434 0.807898 0.99993 0.00903885 -0.00765864 0.384766 0.00195312
1.75558 -1.28434 0.807898 0.99993 0.00903885 -0.00765864 0.384766 0.00195312
1.76392 -1.78022 1.31192 0.99993 0.00903885 -0.00765864 0.384766 0.00195312
1.76013 -1.78431 0.811953 0.99993 0.00903885 -0.00765864 0.384766 0.00195312
1.74344 -0.792562 -0.196096 -0.00758475 -0.0081807 -0.999938 0.384766 0.00195312
1.748 -1.29253 -0.19204 -0.00758475 -0.0081807 -0.999938 0.384766 0.00195312
1.24348 -0.797082 -0.192267 -0.00758475 -0.0081807 -0.999938 0.384766 0.00195312
1.24348 -0.797082 -0.192267 -0.00758475 -0.0081807 -0.999938 0.384766 0.00195312
1.748 -1.29253 -0.19204 -0.00758475 -0.0081807 -0.999938 0.384766 0.00195312
1.24803 -1.29704 -0.188211 -0.00758475 -0.0081807 -0.999938 0.384766 0.00195312
1.74724 -0.788472 0.303873 0.99993 0.00903885 -0.00765864 0.384766 0.00195312
1.75179 -1.28843 0.307929 0.99993 0.00903885 -0.00765864 0.384766 0.00195312
1.74344 -0.792562 -0.196096 0.99993 0.00903885 -0.00765864 0.384766 0.00195312
1.74344 -0.792562 -0.196096 0.99993 0.00903885 -0.00765864 0.384766 0.00195312
1.75179 -1.28843 0.307929 0.99993 0.00903885 -0.00765864 0.384766 0.00195312
1.748 -1.29253 -0.19204 0.99993 0.00903885 -0.00765864 0.384766 0.00195312
1.75103 -0.784382 0.803842 0.99993 0.00903885 -0.00765864 0.384766 0.00195312
1.75558 -1.28434 0.807898 0.99993 0.00903885 -0.00765864 0.384766 0.00195312
1.74724 -0.788472 0.303873 0.99993 0.00903885 -0.00765864 0.384766 0.00195312
1.74724 -0.788472 0.303873 0.99993 0.00903885 -0.00765864 0.384766 0.00195312
1.75558 -1.28434 0.807898 0.99993 0.00903885 -0.00765864 0.384766 0.00195312
1.75179 -1.28843 0.307929 0.99993 0.00903885 -0.00765864 0.384766 0.00195312
1.25486 -0.784811 1.30764 0.00758475 0.0081807 0.999938 0.384766 0.00195312
1.25941 -1.28477 1.3117 0.00758475 0.0081807 0.999938 0.384766 0.00195312
1.75482 -0.780291 1.30381 0.00758475 0.0081807 0.999938 0.384766 0.00195312
1.75482 -0.780291 1.30381 0.00758475 0.0081807 0.999938 0.384766 0.00195312
1.25941 -1.28477 1.3117 0.00758475 0.0081807 0.999938 0.384766 0.00195312
1.75937 -1.28025 1.30787 0.00758475 0.0081807 0.999938 0.384766 0.00195312
1.75482 -0.780291 1.30381 0.99993 0.00903885 -0.00765864 0.384766 0.00195312
1.75937 -1.28025 1.30787 0.99993 0.00903885 -0.00765864 0.384766 0.00195312
1.75103 -0.784382 0.803842 0.99993 0.00903885 -0.00765864 0.384766 0.00195312
1.75103 -0.784382 0.803842 0.99993 0.00903885 -0.00765864 0.384766 0.00195312
1.75937 -1.28025 1.30787 0.99993 0.00903885 -0.00765864 0.384766 0.00195312
1.75558 -1.28434 0.807898 0.99993 0.00903885 -0.00765864 0.384766 0.00195312
1.24272 -0.293029 0.303647 -0.00910094 0.999926 -0.00811157 0.384766 0.00195312
1.74269 -0.288509 0.299817 -0.00910094 0.999926 -0.00811157 0.384766 0.00195312
1.23893 -0.297119 -0.196322 -0.00910094 0.999926 -0.00811157 0.384766 0.00195312
1.23893 -0.297119 -0.196322 -0.00910094 0.999926 -0.00811157 0.384766 0.00195312
1.74269 -0.288509 0.299817 -0.00910094 0.999926 -0.00811157 0.384766 0.00195312
1.73889 -0.292599 -0.200152 -0.00910094 0.999926 -0.00811157 0.384766 0.00195312
1.73889 -0.292599 -0.200152 -0.00758475 -0.0081807 -0.999938 0.384766 0.00195312
1.74344 -0.792562 -0.196096 -0.00758475 -0.0081807 -0.999938 0.384766 0.00195312
1.23893 -0.297119 -0.196322 -0.00758475 -0.0081807 -0.999938 0.384766 0.00195312
1.23893 -0.297119 -0.196322 -0.00758475 -0.0081807 -0.999938 0.384766 0.00195312
1.74344 -0.792562 -0.196096 -0.00758475 -0.0081807 -0.999938 0.384766 0.00195312
1.24348 -0.797082 -0.192267 -0.00758475 -0.0081807 -0.999938 0.384766 0.00195312
1.74269 -0.288509 0.299817 0.99993 0.00903885 -0.00765864 0.384766 0.00195312
1.74724 -0.788472 0.303873 0.99993 0.00903885 -0.00765864 0.384766 0.00195312
1.73889 -0.292599 -0.200152 0.99993 0.00903885 -0.00765864 0.384766 0.00195312
1.73889 -0.292599 -0.200152 0.99993 0.00903885 -0.00765864 0.384766 0.00195312
1.74724 -0.788472 0.303873 0.99993 0.00903885 -0.00765864 0.384766 0.00195312
1.74344 -0.792562 -0.196096 0.99993 0.00903885 -0.00765864 0.384766 0.00195312
1.24652 -0.288938 0.803616 -0.00910094 0.999926 -0.00811157 0.384766 0.00195312
1.74648 -0.284419 0.799786 -0.00910094 0.999926 -0.00811157 0.384766 0.00195312
1.24272 -0.293029 0.303647 -0.00910094 0.999926 -0.00811157 0.384766 0.00195312
1.24272 -0.293029 0.303647 -0.00910094 0.999926 -0.00811157 0.384766 0.00195312
1.74648 -0.284419 0.799786 -0.00910094 0.999926 -0.00811157 0.384766 0.00195312
1.74269 -0.288509 0.299817 -0.00910094 0.999926 -0.00811157 0.384766 0.00195312
1.74648 -0.284419 0.799786 0.99993 0.00903885 -0.00765864 0.384766 0.00195312
1.75103 -0.784382 0.803842 0.99993 0.00903885 -0.00765864 0.384766 0.00195312
1.74269 -0.288509 0.299817 0.99993 0.00903885 -0.00765864 0.384766 0.00195312
1.74269 -0.288509 0.299817 0.99993 0.00903885 -0.00765864 0.384766 0.00195312
1.75103 -0.784382 0.803842 0.99993 0.00903885 -0.00765864 0.384766 0.00195312
1.74724 -0.788472 0.303873 0.99993 0.00903885 -0.00765864 0.384766 0.00195312
1.25031 -0.284848 1.30358 -0.00910094 0.999926 -0.00811157 0.384766 0.00195312
1.75027 -0.280328 1.29975 -0.00910094 0.999926 -0.00811157 0.384766 0.00195312
1.24652 -0.288938 0.803616 -0.00910094 0.999926 -0.00811157 0.384766 0.00195312
1.24652 -0.288938 0.803616 -0.00910094 0.999926 -0.00811157 0.384766 0.00195312
1.75027 -0.280328 1.29975 -0.00910094 0.999926 -0.00811157 0.384766 0.00195312
1.74648 -0.284419 0.799786 -0.00910094 0.999926 -0.00811157 0.384766 0.00195312
1.25031 -0.284848 1.30358 0.00758475 0.0081807 0.999938 0.384766 0.00195312
1.25486 -0.784811 1.30764 0.00758475 0.0081807 0.999938 0.384766 0.00195312
1.75027 -0.280328 1.29975 0.00758475 0.0081807 0.999938 0.384766 0.00195312
1.75027 -0.280328 1.29975 0.00758475 0.0081807 0.999938 0.384766 0.00195312
1.25486 -0.784811 1.30764 0.00758475 0.0081807 0.999938 0.384766 0.00195312
1.75482 -0.780291 1.30381 0.00758475 0.0081807 0.999938 0.384766 0.00195312
1.75027 -0.280328 1.29975 0.99993 0.00903885 -0.00765864 0.384766 0.00195312
1.75482 -0.780291 1.30381 0.99993 0.00903885 -0.00765864 0.384766 0.00195312
1.74648 -0.284419 0.799786 0.99993 0.00903885 -0.00765864 0.384766 0.00195312
1.74648 -0.284419 0.799786 0.99993 0.00903885 -0.00765864 0.384766 0.00195312
1.75482 -0.780291 1.30381 0.99993 0.00903885 -0.00765864 0.384766 0.00195312
1.75103 -0.784382 0.803842 0.99993 0.00903885 -0.00765864 0.384766 0.00195312
0.757167 -2.30149 -0.17627 0.00910094 -0.999926 0.00811157 0.384766 0.00195312
1.25713 -2.29697 -0.180099 0.00910094 -0.999926 0.00811157 0.384766 0.00195312
0.760959 -2.2974 0.323699 0.00910094 -0.999926 0.00811157 0.384766 0.00195312
0.760959 -2.2974 0.323699 0.00910094 -0.999926 0.00811157 0.384766 0.00195312
1.25713 -2.29697 -0.180099 0.00910094 -0.999926 0.00811157 0.384766 0.00195312
1.26092 -2.29288 0.31987 0.00910094 -0.999926 0.00811157 0.384766 0.00195312
1.25258 -1.79701 -0.184155 -0.00758475 -0.0081807 -0.999938 0.384766 0.00195312
1.25713 -2.29697 -0.180099 -0.00758475 -0.0081807 -0.999938 0.384766 0.00195312
0.752616 -1.80153 -0.180326 -0.00758475 -0.0081807 -0.999938 0.384766 0.00195312
0.752616 -1.80153 -0.180326 -0.00758475 -0.0081807 -0.999938 0.384766 0.00195312
1.25713 -2.29697 -0.180099 -0.00758475 -0.0081807 -0.999938 0.384766 0.00195312
0.757167 -2.30149 -0.17627 -0.00758475 -0.0081807 -0.999938 0.384766 0.00195312
0.752616 -1.80153 -0.180326 -0.99993 -0.00903885 0.00765864 0.384766 0.00195312
0.757167 -2.30149 -0.17627 -0.99993 -0.00903885 0.00765864 0.384766 0.00195312
0.756409 -1.79744 0.319643 -0.99993 -0.00903885 0.00765864 0.384766 0.00195312
0.756409 -1.79744 0.319643 -0.99993 -0.00903885 0.00765864 0.384766 0.00195312
0.757167 -2.30149 -0.17627 -0.99993 -0.00903885 0.00765864 0.384766 0.00195312
0.760959 -2.2974 0.323699 -0.99993 -0.00903885 0.00765864 0.384766 0.00195312
0.760959 -2.2974 0.323699 0.00910094 -0.999926 0.00811157 0.384766 0.00195312
1.26092 -2.29288 0.31987 0.00910094 -0.999926 0.00811157 0.384766 0.00195312
0.764752 -2.29331 0.823668 0.00910094 -0.999926 0.00811157 0.384766 0.00195312
0.764752 -2.29331 0.823668 0.00910094 -0.999926 0.00811157 0.384766 0.00195312
1.26092 -2.29288 0.31987 0.00910094 -0.999926 0.00811157 0.384766 0.00195312
1.26472 -2.28879 0.819839 0.00910094 -0.999926 0.00811157 0.384766 0.00195312
0.756409 -1.79744 0.319643 -0.99993 -0.00903885 0.00765864 0.384766 0.00195312
0.760959 -2.2974 0.323699 -0.99993 -0.00903885 0.00765864 0.384766 0.00195312
0.760201 -1.79335 0.819612 -0.99993 -0.00903885 0.00765864 0.384766 0.00195312
0.760201 -1.79335 0.819612 -0.99993 -0.00903885 0.00765864 0.384766 0.00195312
0.760959 -2.2974 0.323699 -0.99993 -0.00903885 0.00765864 0.384766 0.00195312
0.764752 -2.29331 0.823668 -0.99993 -0.00903885 0.00765864 0.384766 0.00195312
0.764752 -2.29331 0.823668 0.00910094 -0.999926 0.00811157 0.384766 0.00195312
1.26472 -2.28879 0.819839 0.00910094 -0.999926 0.00811157 0.384766 0.00195312
0.768544 -2.28922 1.32364 0.00910094 -0.999926 0.00811157 0.384766 0.00195312
0.768544 -2.28922 1.32364 0.00910094 -0.999926 0.00811157 0.384766 0.00195312
1.26472 -2.28879 0.819839 0.00910094 -0.999926 0.00811157 0.384766 0.00195312
1.26851 -2.2847 1.31981 0.00910094 -0.999926 0.00811157 0.384766 0.00195312
0.763994 -1.78926 1.31958 0.00758475 0.0081807 0.999938 0.384766 0.00195312
0.768544 -2.28922 1.32364 0.00758475 0.0081807 0.999938 0.384766 0.00195312
1.26396 -1.78474 1.31575 0.00758475 0.0081807 0.999938 0.384766 0.00195312
1.26396 -1.78474 1.31575 0.00758475 0.0081807 0.999938 0.384766 0.00195312
0.768544 -2.28922 1.32364 0.00758475 0.0081807 0.999938 0.384766 0.00195312
1.26851 -2.2847 1.31981 0.00758475 0.0081807 0.999938 0.384766 0.00195312
0.760201 -1.79335 0.819612 -0.99993 -0.00903885 0.00765864 0.384766 0.00195312
0.764752 -2.29331 0.823668 -0.99993 -0.00903885 0.00765864 0.384766 0.00195312
0.763994 -1.78926 1.31958 -0.99993 -0.00903885 0.00765864 0.384766 0.00195312
0.763994 -1.78926 1.31958 -0.99993 -0.00903885 0.00765864 0.384766 0.00195312
0.764752 -2.29331 0.823668 -0.99993 -0.00903885 0.00765864 0.384766 0.00195312
0.768544 -2.28922 1.32364 -0.99993 -0.00903885 0.00765864 0.384766 0.00195312
1.24803 -1.29704 -0.188211 -0.00758475 -0.0081807 -0.999938 0.384766 0.00195312
1.25258 -1.79701 -0.184155 -0.00758475 -0.0081807 -0.999938 0.384766 0.00195312
0.748066 -1.30156 -0.184381 -0.00758475 -0.0081807 -0.999938 0.384766 0.00195312
0.748066 -1.30156 -0.184381 -0.00758475 -0.0081807 -0.999938 0.384766 0.00195312
1.25258 -1.79701 -0.184155 -0.00758475 -0.0081807 -0.999938 0.384766 0.00195312
0.752616 -1.80153 -0.180326 -0.00758475 -0.0081807 -0.999938 0.384766 0.00195312
0.748066 -1.30156 -0.184381 -0.99993 -0.00903885 0.00765864 0.384766 0.00195312
0.752616 -1.80153 -0.180326 -0.99993 -0.00903885 0.00765864 0.384766 0.00195312
0.751858 -1.29747 0.315587 -0.99993 -0.00903885 0.00765864 0.384766 0.00195312
0.751858 -1.29747 0.315587 -0.99993 -0.00903885 0.00765864 0.384766 0.00195312
0.752616 -1.80153 -0.180326 -0.99993 -0.00903885 0.00765864 0.384766 0.00195312
0.756409 -1.79744 0.319643 -0.99993 -0.00903885 0.00765864 0.384766 0.00195312
0.751858 -1.29747 0.315587 -0.99993 -0.00903885 0.00765864 0.384766 0.00195312
0.756409 -1.79744 0.319643 -0.99993 -0.00903885 0.00765864 0.384766 0.00195312
0.755651 -1.29338 0.815556 -0.99993 -0.00903885 0.00765864 0.384766 0.00195312
0.755651 -1.29338 0.815556 -0.99993 -0.00903885 0.00765864 0.384766 0.00195312
0.756409 -1.79744 0.319643 -0.99993 -0.00903885 0.00765864 0.384766 0.00195312
0.760201 -1.79335 0.819612 -0.99993 -0.00903885 0.00765864 0.384766 0.00195312
0.759443 -1.28929 1.31553 0.00758475 0.0081807 0.999938 0.384766 0.00195312
0.763994 -1.78926 1.31958 0.00758475 0.0081807 0.999938 0.384766 0.00195312
1.25941 -1.28477 1.3117 0.00758475 0.0081807 0.999938 0.384766 0.00195312
1.25941 -1.28477 1.3117 0.00758475 0.0081807 0.999938 0.384766 0.00195312
0.763994 -1.78926 1.31958 0.00758475 0.0081807 0.999938 0.384766 0.00195312
1.26396 -1.78474 1.31575 0.00758475 0.0081807 0.999938 0.384766 0.00195312
0.755651 -1.29338 0.815556 -0.99993 -0.00903885 0.00765864 0.384766 0.00195312
0.760201 -1.79335 0.819612 -0.99993 -0.00903885 0.00765864 0.384766 0.00195312
0.759443 -1.28929 1.31553 -0.99993 -0.00903885 0.00765864 0.384766 0.00195312
0.759443 -1.28929 1.31553 -0.99993 -0.00903885 0.00765864 0.384766 0.00195312
0.760201 -1.79335 0.819612 -0.99993 -0.00903885 0.00765864 0.384766 0.00195312
0.763994 -1.78926 1.31958 -0.99993 -0.00903885 0.00765864 0.384766 0.00195312
1.24348 -0.797082 -0.192267 -0.00758475 -0.0081807 -0.999938 0.384766 0.00195312
1.24803 -1.29704 -0.188211 -0.00758475 -0.0081807 -0.999938 0.384766 0.00195312
0.743515 -0.801601 -0.188437 -0.00758475 -0.0081807 -0.999938 0.384766 0.00195312
0.743515 -0.801601 -0.188437 -0.00758475 -0.0081807 -0.999938 0.384766 0.00195312
1.24803 -1.29704 -0.188211 -0.00758475 -0.0081807 -0.999938 0.384766 0.00195312
0.748066 -1.30156 -0.184381 -0.00758475 -0.0081807 -0.999938 0.384766 0.00195312
0.743515 -0.801601 -0.188437 -0.99993 -0.00903885 0.00765864 0.384766 0.00195312
0.748066 -1.30156 -0.184381 -0.99993 -0.00903885 0.00765864 0.384766 0.00195312
0.747308 -0.797511 0.311532 -0.99993 -0.00903885 0.00765864 0.384766 0.00195312
0.747308 -0.797511 0.311532 -0.99993 -0.00903885 0.00765864 0.384766 0.00195312
0.748066 -1.30156 -0.184381 -0.99993 -0.00903885 0.00765864 0.384766 0.00195312
0.751858 -1.29747 0.315587 -0.99993 -0.00903885 0.00765864 0.384766 0.00195312
0.747308 -0.797511 0.311532 -0.99993 -0.00903885 0.00765864 0.384766 0.00195312
0.751858 -1.29747 0.315587 -0.99993 -0.00903885 0.00765864 0.384766 0.00195312
0.7511 -0.79342 0.811501 -0.99993 -0.00903885 0.00765864 0.384766 0.00195312
0.7511 -0.79342 0.811501 -0.99993 -0.00903885 0.00765864 0.384766 0.00195312
0.751858 -1.29747 0.315587 -0.99993 -0.00903885 0.00765864 0.384766 0.00195312
0.755651 -1.29338 0.815556 -0.99993 -0.00903885 0.00765864 0.384766 0.00195312
0.754893 -0.78933 1.31147 0.00758475 0.0081807 0.999938 0.384766 0.00195312
0.759443 -1.28929 1.31553 0.00758475 0.0081807 0.999938 0.384766 0.00195312
1.25486 -0.784811 1.30764 0.00758475 0.0081807 0.999938 0.384766 0.00195312
1.25486 -0.784811 1.30764 0.00758475 0.0081807 0.999938 0.384766 0.00195312
0.759443 -1.28929 1.31553 0.00758475 0.0081807 0.999938 0.384766 0.00195312
1.25941 -1.28477 1.3117 0.00758475 0.0081807 0.999938 0.384766 0.00195312
0.7511 -0.79342 0.811501 -0.99993 -0.00903885 0.00765864 0.384766 0.00195312
0.755651 -1.29338 0.815556 -0.99993 -0.00903885 0.00765864 0.384766 0.00195312
0.754893 -0.78933 1.31147 -0.99993 -0.00903885 0.00765864 0.384766 0.00195312
0.754893 -0.78933 1.31147 -0.99993 -0.00903885 0.00765864 0.384766 0.00195312
0.755651 -1.29338 0.815556 -0.99993 -0.00903885 0.00765864 0.384766 0.00195312
0.759443 -1.28929 1.31553 -0.99993 -0.00903885 0.00765864 0.384766 0.00195312
0.742757 -0.297548 0.307476 -0.00910094 0.999926 -0.00811157 0.384766 0.00195312
1.24272 -0.293029 0.303647 -0.00910094 0.999926 -0.00811157 0.384766 0.00195312
0.738965 -0.301638 -0.192493 -0.00910094 0.999926 -0.00811157 0.384766 0.00195312
0.738965 -0.301638 -0.192493 -0.00910094 0.999926 -0.00811157 0.384766 0.00195312
1.24272 -0.293029 0.303647 -0.00910094 0.999926 -0.00811157 0.384766 0.00195312
1.23893 -0.297119 -0.196322 -0.00910094 0.999926 -0.00811157 0.384766 0.00195312
1.23893 -0.297119 -0.196322 -0.00758475 -0.0081807 -0.999938 0.384766 0.00195312
1.24348 -0.797082 -0.192267 -0.00758475 -0.0081807 -0.999938 0.384766 0.00195312
0.738965 -0.301638 -0.192493 -0.00758475 -0.0081807 -0.999938 0.384766 0.00195312
0.738965 -0.301638 -0.192493 -0.00758475 -0.0081807 -0.999938 0.384766 0.00195312
1.24348 -0.797082 -0.192267 -0.00758475 -0.0081807 -0.999938 0.384766 0.00195312
0.743515 -0.801601 -0.188437 -0.00758475 -0.0081807 -0.999938 0.384766 0.00195312
0.738965 -0.301638 -0.192493 -0.99993 -0.00903885 0.00765864 0.384766 0.00195312
0.743515 -0.801601 -0.188437 -0.99993 -0.00903885 0.00765864 0.384766 0.00195312
0.742757 -0.297548 0.307476 -0.99993 -0.00903885 0.00765864 0.384766 0.00195312
0.742757 -0.297548 0.307476 -0.99993 -0.00903885 0.00765864 0.384766 0.00195312
0.743515 -0.801601 -0.188437 -0.99993 -0.00903885 0.00765864 0.384766 0.00195312
0.747308 -0.797511 0.311532 -0.99993 -0.00903885 0.00765864 0.384766 0.00195312
0.74655 -0.293458 0.807445 -0.00910094 0.999926 -0.00811157 0.384766 0.00195312
1.24652 -0.288938 0.803616 -0.00910094 0.999926 -0.00811157 0.384766 0.00195312
0.742757 -0.297548 0.307476 -0.00910094 0.999926 -0.00811157 0.384766 0.00195312
0.742757 -0.297548 0.307476 -0.00910094 0.999926 -0.00811157 0.384766 0.00195312
1.24652 -0.288938 0.803616 -0.00910094 0.999926 -0.00811157 0.384766 0.00195312
1.24272 -0.293029 0.303647 -0.00910094 0.999926 -0.00811157 0.384766 0.00195312
0.742757 -0.297548 0.307476 -0.99993 -0.00903885 0.00765864 0.384766 0.00195312
0.747308 -0.797511 0.311532 -0.99993 -0.00903885 0.00765864 0.384766 0.00195312
0.74655 -0.293458 0.807445 -0.99993 -0.00903885 0.00765864 0.384766 0.00195312
0.74655 -0.293458 0.807445 -0.99993 -0.00903885 0.00765864 0.384766 0.00195312
0.747308 -0.797511 0.311532 -0.99993 -0.00903885 0.00765864 0.384766 0.00195312
0.7511 -0.79342 0.811501 -0.99993 -0.00903885 0.00765864 0.384766 0.00195312
0.750342 -0.289367 1.30741 -0.00910094 0.999926 -0.00811157 0.384766 0.00195312
1.25031 -0.284848 1.30358 -0.00910094 0.999926 -0.00811157 0.384766 0.00195312
0.74655 -0.293458 0.807445 -0.00910094 0.999926 -0.00811157 0.384766 0.00195312
0.74655 -0.293458 0.807445 -0.00910094 0.999926 -0.00811157 0.384766 0.00195312
1.25031 -0.284848 1.30358 -0.00910094 0.999926 -0.00811157 0.384766 0.00195312
1.24652 -0.288938 0.803616 -0.00910094 0.999926 -0.00811157 0.384766 0.00195312
0.750342 -0.289367 1.30741 0.00758475 0.0081807 0.999938 0.384766 0.00195312
0.754893 -0.78933 1.31147 0.00758475 0.0081807 0.999938 0.384766 0.00195312
1.25031 -0.284848 1.30358 0.00758475 0.0081807 0.999938 0.384766 0.00195312
1.25031 -0.284848 1.30358 0.00758475 0.0081807 0.999938 0.384766 0.00195312
0.754893 -0.78933 1.31147 0.00758475 0.0081807 0.999938 0.384766 0.00195312
1.25486 -0.784811 1.30764 0.00758475 0.0081807 0.999938 0.384766 0.00195312
0.74655 -0.293458 0.807445 -0.99993 -0.00903885 0.00765864 0.384766 0.00195312
0.7511 -0.79342 0.811501 -0.99993 -0.00903885 0.00765864 0.384766 0.00195312
0.750342 -0.289367 1.30741 -0.99993 -0.00903885 0.00765864 0.384766 0.00195312
0.750342 -0.289367 1.30741 -0.99993 -0.00903885 0.00765864 0.384766 0.00195312
0.7511 -0.79342 0.811501 -0.99993 -0.00903885 0.00765864 0.384766 0.00195312
0.754893 -0.78933 1.31147 -0.99993 -0.00903885 0.00765864 0.384766 0.00195312
1.23817 0.206934 0.299591 -0.00910094 0.999926 -0.00811157 0.384766 0.00195312
1.73814 0.211454 0.295761 -0.00910094 0.999926 -0.00811157 0.384766 0.00195312
1.23438 0.202844 -0.200378 -0.00910094 0.999926 -0.00811157 0.384766 0.00195312
1.23438 0.202844 -0.200378 -0.00910094 0.999926 -0.00811157 0.384766 0.00195312
1.73814 0.211454 0.295761 -0.00910094 0.999926 -0.00811157 0.384766 0.00195312
1.73434 0.207364 -0.204208 -0.00910094 0.999926 -0.00811157 0.384766 0.00195312
1.23893 -0.297119 -0.196322 0.00910094 -0.999926 0.00811157 0.384766 0.00195312
1.73889 -0.292599 -0.200152 0.00910094 -0.999926 0.00811157 0.384766 0.00195312
1.24272 -0.293029 0.303647 0.00910094 -0.999926 0.00811157 0.384766 0.00195312
1.24272 -0.293029 0.303647 0.00910094 -0.999926 0.00811157 0.384766 0.00195312
1.73889 -0.292599 -0.200152 0.00910094 -0.999926 0.00811157 0.384766 0.00195312
1.74269 -0.288509 0.299817 0.00910094 -0.999926 0.00811157 0.384766 0.00195312
1.73434 0.207364 -0.204208 -0.00758475 -0.0081807 -0.999938 0.384766 0.00195312
1.73889 -0.292599 -0.200152 -0.00758475 -0.0081807 -0.999938 0.384766 0.00195312
1.23438 0.202844 -0.200378 -0.00758475 -0.0081807 -0.999938 0.384766 0.00195312
1.23438 0.202844 -0.200378 -0.00758475 -0.0081807 -0.999938 0.384766 0.00195312
1.73889 -0.292599 -0.200152 -0.00758475 -0.0081807 -0.999938 0.384766 0.00195312
1.23893 -0.297119 -0.196322 -0.00758475 -0.0081807 -0.999938 0.384766 0.00195312
1.73814 0.211454 0.295761 0.99993 0.00903885 -0.00765864 0.384766 0.00195312
1.74269 -0.288509 0.299817 0.99993 0.00903885 -0.00765864 0.384766 0.00195312
1.73434 0.207364 -0.204208 0.99993 0.00903885 -0.00765864 0.384766 0.00195312
1.73434 0.207364 -0.204208 0.99993 0.00903885 -0.00765864 0.384766 0.00195312
1.74269 -0.288509 0.299817 0.99993 0.00903885 -0.00765864 0.384766 0.00195312
1.73889 -0.292599 -0.200152 0.99993 0.00903885 -0.00765864 0.384766 0.00195312
1.24196 0.211025 0.79956 -0.00910094 0.999926 -0.00811157 0.384766 0.00195312
1.74193 0.215544 0.79573 -0.00910094 0.999926 -0.00811157 0.384766 0.00195312
1.23817 0.206934 0.299591 -0.00910094 0.999926 -0.00811157 0.384766 0.00195312
1.23817 0.206934 0.299591 -0.00910094 0.999926 -0.00811157 0.384766 0.00195312
1.74193 0.215544 0.79573 -0.00910094 0.999926 -0.00811157 0.384766 0.00195312
1.73814 0.211454 0.295761 -0.00910094 0.999926 -0.00811157 0.384766 0.00195312
1.24272 -0.293029 0.303647 0.00910094 -0.999926 0.00811157 0.384766 0.00195312
1.74269 -0.288509 0.299817 0.00910094 -0.999926 0.00811157 0.384766 0.00195312
1.24652 -0.288938 0.803616 0.00910094 -0.999926 0.00811157 0.384766 0.00195312
1.24652 -0.288938 0.803616 0.00910094 -0.999926 0.00811157 0.384766 0.00195312
1.74269 -0.288509 0.299817 0.00910094 -0.999926 0.00811157 0.384766 0.00195312
1.74648 -0.284419 0.799786 0.00910094 -0.999926 0.00811157 0.384766 0.00195312
1.74193 0.215544 0.79573 0.99993 0.00903885 -0.00765864 0.384766 0.00195312
1.74648 -0.284419 0.799786 0.99993 0.00903885 -0.00765864 0.384766 0.00195312
1.73814 0.211454 0.295761 0.99993 0.00903885 -0.00765864 0.384766 0.00195312
1.73814 0.211454 0.295761 0.99993 0.00903885 -0.00765864 0.384766 0.00195312
1.74648 -0.284419 0.799786 0.99993 0.00903885 -0.00765864 0.384766 0.00195312
1.74269 -0.288509 0.299817 0.99993 0.00903885 -0.00765864 0.384766 0.00195312
1.24576 0.215115 1.29953 -0.00910094 0.999926 -0.00811157 0.384766 0.00195312
1.74572 0.219635 1.2957 -0.00910094 0.999926 -0.00811157 0.384766 0.00195312
1.24196 0.211025 0.79956 -0.00910094 0.999926 -0.00811157 0.384766 0.00195312
1.24196 0.211025 0.79956 -0.00910094 0.999926 -0.00811157 0.384766 0.00195312
1.74572 0.219635 1.2957 -0.00910094 0.999926 -0.00811157 0.384766 0.00195312
1.74193 0.215544 0.79573 -0.00910094 0.999926 -0.00811157 0.384766 0.00195312
1.24652 -0.288938 0.803616 0.00910094 -0.999926 0.00811157 0.384766 0.00195312
1.74648 -0.284419 0.799786 0.00910094 -0.999926 0.00811157 0.384766 0.00195312
1.25031 -0.284848 1.30358 0.00910094 -0.999926 0.00811157 0.384766 0.00195312
1.25031 -0.284848 1.30358 0.00910094 -0.999926 0.00811157 0.384766 0.00195312
1.74648 -0.284419 0.799786 0.00910094 -0.999926 0.00811157 0.384766 0.00195312
1.75027 -0.280328 1.29975 0.00910094 -0.999926 0.00811157 0.384766 0.00195312
1.24576 0.215115 1.29953 0.00758475 0.0081807 0.999938 0.384766 0.00195312
1.25031 -0.284848 1.30358 0.00758475 0.0081807 0.999938 0.384766 0.00195312
1.74572 0.219635 1.2957 0.00758475 0.0081807 0.999938 0.384766 0.00195312
1.74572 0.219635 1.2957 0.00758475 0.0081807 0.999938 0.384766 0.00195312
1.25031 -0.284848 1.30358 0.00758475 0.0081807 0.999938 0.384766 0.00195312
1.75027 -0.280328 1.29975 0.00758475 0.0081807 0.999938 0.384766 0.00195312
1.74572 0.219635 1.2957 0.99993 0.00903885 -0.00765864 0.384766 0.00195312
1.75027 -0.280328 1.29975 0.99993 0.00903885 -0.00765864 0.384766 0.00195312
1.74193 0.215544 0.79573 0.99993 0.00903885 -0.00765864 0.384766 0.00195312
1.74193 0.215544 0.79573 0.99993 0.00903885 -0.00765864 0.384766 0.00195312
1.75027 -0.280328 1.29975 0.99993 0.00903885 -0.00765864 0.384766 0.00195312
1.74648 -0.284419 0.799786 0.99993 0.00903885 -0.00765864 0.384766 0.00195312
0.738207 0.202415 0.30342 -0.00910094 0.999926 -0.00811157 0.384766 0.00195312
1.23817 0.206934 0.299591 -0.00910094 0.999926 -0.00811157 0.384766 0.00195312
0.734415 0.198325 -0.196549 -0.00910094 0.999926 -0.00811157 0.384766 0.00195312
0.734415 0.198325 -0.196549 -0.00910094 0.999926 -0.00811157 0.384766 0.00195312
1.23817 0.206934 0.299591 -0.00910094 0.999926 -0.00811157 0.384766 0.00195312
1.23438 0.202844 -0.200378 -0.00910094 0.999926 -0.00811157 0.384766 0.00195312
0.738965 -0.301638 -0.192493 0.00910094 -0.999926 0.00811157 0.384766 0.00195312
1.23893 -0.297119 -0.196322 0.00910094 -0.999926 0.00811157 0.384766 0.00195312
0.742757 -0.297548 0.307476 0.00910094 -0.999926 0.00811157 0.384766 0.00195312
0.742757 -0.297548 0.307476 0.00910094 -0.999926 0.00811157 0.384766 0.00195312
1.23893 -0.297119 -0.196322 0.00910094 -0.999926 0.00811157 0.384766 0.00195312
1.24272 -0.293029 0.303647 0.00910094 -0.999926 0.00811157 0.384766 0.00195312
1.23438 0.202844 -0.200378 -0.00758475 -0.0081807 -0.999938 0.384766 0.00195312
1.23893 -0.297119 -0.196322 -0.00758475 -0.0081807 -0.999938 0.384766 0.00195312
0.734415 0.198325 -0.196549 -0.00758475 -0.0081807 -0.999938 0.384766 0.00195312
0.734415 0.198325 -0.196549 -0.00758475 -0.0081807 -0.999938 0.384766 0.00195312
1.23893 -0.297119 -0.196322 -0.00758475 -0.0081807 -0.999938 0.384766 0.00195312
0.738965 -0.301638 -0.192493 -0.00758475 -0.0081807 -0.999938 0.384766 0.00195312
0.734415 0.198325 -0.196549 -0.99993 -0.00903885 0.00765864 0.384766 0.00195312
0.738965 -0.301638 -0.192493 -0.99993 -0.00903885 0.00765864 0.384766 0.00195312
0.738207 0.202415 0.30342 -0.99993 -0.00903885 0.00765864 0.384766 0.00195312
0.738207 0.202415 0.30342 -0.99993 -0.00903885 0.00765864 0.384766 0.00195312
0.738965 -0.301638 -0.192493 -0.99993 -0.00903885 0.00765864 0.384766 0.00195312
0.742757 -0.297548 0.307476 -0.99993 -0.00903885 0.00765864 0.384766 0.00195312
0.741999 0.206505 0.803389 -0.00910094 0.999926 -0.00811157 0.384766 0.00195312
1.24196 0.211025 0.79956 -0.00910094 0.999926 -0.00811157 0.384766 0.00195312
0.738207 0.202415 0.30342 -0.00910094 0.999926 -0.00811157 0.384766 0.00195312
0.738207 0.202415 0.30342 -0.00910094 0.999926 -0.00811157 0.384766 0.00195312
1.24196 0.211025 0.79956 -0.00910094 0.999926 -0.00811157 0.384766 0.00195312
1.23817 0.206934 0.299591 -0.00910094 0.999926 -0.00811157 0.384766 0.00195312
0.742757 -0.297548 0.307476 0.00910094 -0.999926 0.00811157 0.384766 0.00195312
1.24272 -0.293029 0.303647 0.00910094 -0.999926 0.00811157 0.384766 0.00195312
0.74655 -0.293458 0.807445 0.00910094 -0.999926 0.00811157 0.384766 0.00195312
0.74655 -0.293458 0.807445 0.00910094 -0.999926 0.00811157 0.384766 0.00195312
1.24272 -0.293029 0.303647 0.00910094 -0.999926 0.00811157 0.384766 0.00195312
1.24652 -0.288938 0.803616 0.00910094 -0.999926 0.00811157 0.384766 0.00195312
0.738207 0.202415 0.30342 -0.99993 -0.00903885 0.00765864 0.384766 0.00195312
0.742757 -0.297548 0.307476 -0.99993 -0.00903885 0.00765864 0.384766 0.00195312
0.741999 0.206505 0.803389 -0.99993 -0.00903885 0.00765864 0.384766 0.00195312
0.741999 0.206505 0.803389 -0.99993 -0.00903885 0.00765864 0.384766 0.00195312
0.742757 -0.297548 0.307476 -0.99993 -0.00903885 0.00765864 0.384766 0.00195312
0.74655 -0.293458 0.807445 -0.99993 -0.00903885 0.00765864 0.384766 0.00195312
0.745792 0.210596 1.30336 -0.00910094 0.999926 -0.00811157 0.384766 0.00195312
1.24576 0.215115 1.29953 -0.00910094 0.999926 -0.00811157 0.384766 0.00195312
0.741999 0.206505 0.803389 -0.00910094 0.999926 -0.00811157 0.384766 0.00195312
0.741999 0.206505 0.803389 -0.00910094 0.999926 -0.00811157 0.384766 0.00195312
1.24576 0.215115 1.29953 -0.00910094 0.999926 -0.00811157 0.384766 0.00195312
1.24196 0.211025 0.79956 -0.00910094 0.999926 -0.00811157 0.384766 0.00195312
0.74655 -0.293458 0.807445 0.00910094 -0.999926 0.00811157 0.384766 0.00195312
1.24652 -0.288938 0.803616 0.00910094 -0.999926 0.00811157 0.384766 0.00195312
0.750342 -0.289367 1.30741 0.00910094 -0.999926 0.00811157 0.384766 0.00195312
0.750342 -0.289367 1.30741 0.00910094 -0.999926 0.00811157 0.384766 0.00195312
1.24652 -0.288938 0.803616 0.00910094 -0.999926 0.00811157 0.384766 0.00195312
1.25031 -0.284848 1.30358 0.00910094 -0.999926 0.00811157 0.384766 0.00195312
0.745792 0.210596 1.30336 0.00758475 0.0081807 0.999938 0.384766 0.00195312
0.750342 -0.289367 1.30741 0.00758475 0.0081807 0.999938 0.384766 0.00195312
1.24576 0.215115 1.29953 0.00758475 0.0081807 0.999938 0.384766 0.00195312
1.24576 0.215115 1.29953 0.00758475 0.0081807 0.999938 0.384766 0.00195312
0.750342 -0.289367 1.30741 0.00758475 0.0081807 0.999938 0.384766 0.00195312
1.25031 -0.284848 1.30358 0.00758475 0.0081807 0.999938 0.384766 0.00195312
0.741999 0.206505 0.803389 -0.99993 -0.00903885 0.00765864 0.384766 0.00195312
0.74655 -0.293458 0.807445 -0.99993 -0.00903885 0.00765864 0.384766 0.00195312
0.745792 0.210596 1.30336 -0.99993 -0.00903885 0.00765864 0.384766 0.00195312
0.745792 0.210596 1.30336 -0.99993 -0.00903885 0.00765864 0.384766 0.00195312
0.74655 -0.293458 0.807445 -0.99993 -0.00903885 0.00765864 0.384766 0.00195312
0.750342 -0.289367 1.30741 -0.99993 -0.00903885 0.00765864 0.384766 0.00195312
3 0 1 2
3 3 4 5
3 6 7 8
3 9 10 11
3 12 13 14
3 15 16 17
3 18 19 20
3 21 22 23
3 24 25 26
3 27 28 29
3 30 31 32
3 33 34 35
3 36 37 38
3 39 40 41
3 42 43 44
3 45 46 47
3 48 49 50
3 51 52 53
3 54 55 56
3 57 58 59
3 60 61 62
3 63 64 65
3 66 67 68
3 69 70 71
3 72 73 74
3 75 76 77
3 78 79 80
3 81 82 83
3 84 85 86
3 87 88 89
3 90 91 92
3 93 94 95
3 96 97 98
3 99 100 101
3 102 103 104
3 105 106 107
3 108 109 110
3 111 112 113
3 114 115 116
3 117 118 119
3 120 121 122
3 123 124 125
3 126 127 128
3 129 130 131
3 132 133 134
3 135 136 137
3 138 139 140
3 141 142 143
3 144 145 146
3 147 148 149
3 150 151 152
3 153 154 155
3 156 157 158
3 159 160 161
3 162 163 164
3 165 166 167
3 168 169 170
3 171 172 173
3 174 175 176
3 177 178 179
3 180 181 182
3 183 184 185
3 186 187 188
3 189 190 191
3 192 193 194
3 195 196 197
3 198 199 200
3 201 202 203
3 204 205 206
3 207 208 209
3 210 211 212
3 213 214 215
3 216 217 218
3 219 220 221
3 222 223 224
3 225 226 227
3 228 229 230
3 231 232 233
3 234 235 236
3 237 238 239
3 240 241 242
3 243 244 245
3 246 247 248
3 249 250 251
3 252 253 254
3 255 256 257
3 258 259 260
3 261 262 263
3 264 265 266
3 267 268 269
3 270 271 272
3 273 274 275
3 276 277 278
3 279 280 281
3 282 283 284
3 285 286 287
3 288 289 290
3 291 292 293
3 294 295 296
3 297 298 299
3 300 301 302
3 303 304 305
3 306 307 308
3 309 310 311
3 312 313 314
3 315 316 317
3 318 319 320
3 321 322 323
3 324 325 326
3 327 328 329
3 330 331 332
3 333 334 335
3 336 337 338
3 339 340 341
3 342 343 344
3 345 346 347
3 348 349 350
3 351 352 353
3 354 355 356
3 357 358 359
3 360 361 362
3 363 364 365
3 366 367 368
3 369 370 371
3 372 373 374
3 375 376 377
3 378 379 380
3 381 382 383
3 384 385 386
3 387 388 389
3 390 391 392
3 393 394 395
3 396 397 398
3 399 400 401
3 402 403 404
3 405 406 407
3 408 409 410
3 411 412 413
3 414 415 416
3 417 418 419
3 420 421 422
3 423 424 425
3 426 427 428
3 429 430 431
3 432 433 434
3 435 436 437
3 438 439 440
3 441 442 443
